<?xml version="1.0" encoding="UTF-8"?>
<svg xmlns="http://www.w3.org/2000/svg" xmlns:xlink="http://www.w3.org/1999/xlink" width="500px" height="453px" viewBox="0 0 499 453" version="1.1">
<g id="surface1">
<path style=" stroke:none;fill-rule:nonzero;fill:rgb(0%,65.882353%,65.882353%);fill-opacity:1;" d="M 146.753906 119.734375 C 152.070312 119.65625 157.386719 119.597656 162.699219 119.5625 C 163.328125 119.558594 163.957031 119.554688 164.585938 119.546875 C 164.710938 119.546875 164.835938 119.546875 164.964844 119.546875 C 166.988281 119.53125 169.007812 119.503906 171.03125 119.472656 C 173.109375 119.441406 175.183594 119.421875 177.261719 119.417969 C 178.429688 119.414062 179.59375 119.402344 180.757812 119.378906 C 181.859375 119.355469 182.957031 119.347656 184.054688 119.351562 C 184.457031 119.351562 184.859375 119.34375 185.261719 119.332031 C 188.210938 119.242188 188.210938 119.242188 189.214844 120.066406 C 189.957031 120.871094 190.527344 121.765625 191.066406 122.714844 C 191.363281 123.226562 191.703125 123.675781 192.070312 124.136719 C 192.234375 124.347656 192.234375 124.347656 192.398438 124.5625 C 192.554688 124.765625 192.554688 124.765625 192.714844 124.976562 C 193.71875 126.285156 194.703125 127.609375 195.679688 128.941406 C 196.453125 129.996094 197.242188 131.039062 198.039062 132.082031 C 199.042969 133.394531 200.027344 134.714844 201.003906 136.046875 C 201.777344 137.105469 202.566406 138.148438 203.363281 139.1875 C 204.367188 140.5 205.351562 141.820312 206.328125 143.15625 C 207.101562 144.210938 207.890625 145.253906 208.6875 146.292969 C 209.6875 147.605469 210.675781 148.925781 211.652344 150.261719 C 212.425781 151.316406 213.214844 152.359375 214.007812 153.398438 C 215.011719 154.710938 216 156.03125 216.976562 157.367188 C 217.75 158.421875 218.539062 159.464844 219.332031 160.503906 C 220.335938 161.816406 221.324219 163.140625 222.296875 164.472656 C 223.074219 165.527344 223.863281 166.570312 224.65625 167.609375 C 225.660156 168.921875 226.648438 170.246094 227.621094 171.578125 C 228.394531 172.632812 229.183594 173.675781 229.980469 174.714844 C 230.984375 176.027344 231.96875 177.351562 232.945312 178.683594 C 233.835938 179.898438 234.75 181.097656 235.664062 182.292969 C 236.558594 183.464844 237.433594 184.648438 238.304688 185.835938 C 239.101562 186.925781 239.917969 188 240.742188 189.070312 C 240.917969 189.300781 241.09375 189.527344 241.265625 189.757812 C 241.507812 190.085938 241.507812 190.085938 241.789062 190.375 C 242.183594 190.824219 242.414062 191.128906 242.378906 191.742188 C 242.328125 191.976562 242.328125 191.976562 242.277344 192.210938 C 242.242188 192.386719 242.207031 192.558594 242.171875 192.738281 C 241.96875 193.625 241.753906 194.507812 241.53125 195.390625 C 241.457031 195.691406 241.457031 195.691406 241.378906 196 C 241.269531 196.433594 241.160156 196.863281 241.050781 197.296875 C 240.878906 197.980469 240.707031 198.664062 240.535156 199.347656 C 240.078125 201.167969 239.617188 202.988281 239.160156 204.808594 C 238.855469 206.007812 238.554688 207.207031 238.253906 208.40625 C 238.113281 208.972656 237.96875 209.542969 237.824219 210.113281 C 237.664062 210.742188 237.503906 211.375 237.347656 212.007812 C 237.300781 212.195312 237.25 212.382812 237.203125 212.578125 C 237.160156 212.75 237.117188 212.921875 237.074219 213.097656 C 237.015625 213.320312 237.015625 213.320312 236.957031 213.550781 C 236.929688 213.714844 236.929688 213.714844 236.902344 213.886719 C 236.960938 213.945312 237.019531 214.003906 237.078125 214.066406 C 238.453125 212.269531 239.824219 210.472656 241.160156 208.644531 C 242.152344 207.292969 243.164062 205.953125 244.183594 204.621094 C 244.960938 203.601562 245.726562 202.574219 246.484375 201.539062 C 247.476562 200.1875 248.488281 198.847656 249.507812 197.515625 C 250.285156 196.496094 251.050781 195.46875 251.808594 194.433594 C 252.796875 193.078125 253.8125 191.742188 254.832031 190.410156 C 255.609375 189.390625 256.375 188.363281 257.128906 187.328125 C 258.121094 185.972656 259.132812 184.636719 260.152344 183.300781 C 260.933594 182.285156 261.699219 181.257812 262.453125 180.222656 C 263.445312 178.867188 264.457031 177.53125 265.476562 176.195312 C 266.253906 175.179688 267.019531 174.152344 267.777344 173.117188 C 268.769531 171.761719 269.78125 170.425781 270.800781 169.09375 C 271.589844 168.058594 272.367188 167.015625 273.132812 165.964844 C 274.183594 164.53125 275.257812 163.117188 276.339844 161.707031 C 277.925781 159.644531 279.5 157.570312 281.035156 155.46875 C 281.925781 154.253906 282.839844 153.054688 283.753906 151.859375 C 284.53125 150.839844 285.296875 149.8125 286.054688 148.78125 C 287.046875 147.425781 288.058594 146.085938 289.078125 144.753906 C 289.855469 143.734375 290.621094 142.707031 291.378906 141.671875 C 292.371094 140.320312 293.382812 138.980469 294.402344 137.648438 C 295.179688 136.628906 295.945312 135.601562 296.703125 134.566406 C 297.695312 133.210938 298.707031 131.875 299.726562 130.542969 C 300.503906 129.523438 301.269531 128.496094 302.027344 127.460938 C 303.152344 125.925781 304.300781 124.410156 305.457031 122.894531 C 306.125 122.023438 306.78125 121.144531 307.4375 120.265625 C 307.703125 119.910156 307.703125 119.910156 307.882812 119.734375 C 308.421875 119.714844 308.953125 119.710938 309.492188 119.710938 C 309.75 119.710938 309.75 119.710938 310.011719 119.710938 C 310.589844 119.710938 311.167969 119.714844 311.746094 119.714844 C 312.160156 119.714844 312.570312 119.714844 312.984375 119.714844 C 314.109375 119.714844 315.234375 119.714844 316.355469 119.714844 C 317.410156 119.71875 318.464844 119.71875 319.519531 119.71875 C 321.609375 119.71875 323.699219 119.71875 325.789062 119.722656 C 327.820312 119.722656 329.847656 119.722656 331.878906 119.722656 C 332.003906 119.722656 332.128906 119.722656 332.257812 119.722656 C 332.882812 119.726562 333.511719 119.726562 334.140625 119.726562 C 339.347656 119.726562 344.554688 119.730469 349.761719 119.734375 C 349.515625 120.378906 349.25 120.878906 348.824219 121.425781 C 348.652344 121.652344 348.652344 121.652344 348.472656 121.882812 C 348.351562 122.042969 348.226562 122.203125 348.097656 122.367188 C 347.835938 122.703125 347.578125 123.042969 347.316406 123.378906 C 347.1875 123.546875 347.0625 123.710938 346.929688 123.882812 C 346.449219 124.507812 345.972656 125.140625 345.503906 125.773438 C 344.6875 126.863281 343.867188 127.945312 343.039062 129.027344 C 342.03125 130.351562 341.035156 131.683594 340.054688 133.027344 C 339.160156 134.242188 338.25 135.441406 337.332031 136.640625 C 336.554688 137.660156 335.789062 138.683594 335.03125 139.71875 C 334.042969 141.074219 333.027344 142.410156 332.007812 143.746094 C 331.230469 144.765625 330.464844 145.789062 329.710938 146.824219 C 328.71875 148.179688 327.707031 149.519531 326.683594 150.851562 C 325.90625 151.871094 325.140625 152.898438 324.386719 153.929688 C 323.394531 155.285156 322.382812 156.625 321.363281 157.957031 C 320.585938 158.976562 319.820312 160.003906 319.0625 161.035156 C 318.070312 162.390625 317.058594 163.730469 316.039062 165.0625 C 315.261719 166.082031 314.496094 167.109375 313.738281 168.144531 C 312.746094 169.496094 311.734375 170.835938 310.714844 172.167969 C 309.9375 173.1875 309.171875 174.214844 308.414062 175.25 C 307.421875 176.605469 306.410156 177.941406 305.390625 179.273438 C 304.613281 180.292969 303.847656 181.320312 303.089844 182.355469 C 302.101562 183.710938 301.085938 185.046875 300.066406 186.382812 C 299.289062 187.398438 298.523438 188.425781 297.765625 189.460938 C 296.777344 190.816406 295.765625 192.152344 294.746094 193.484375 C 293.957031 194.515625 293.1875 195.554688 292.421875 196.601562 C 291.519531 197.835938 290.589844 199.046875 289.648438 200.25 C 288.808594 201.328125 287.996094 202.425781 287.191406 203.527344 C 286.410156 204.59375 285.613281 205.644531 284.8125 206.691406 C 283.914062 207.867188 283.027344 209.050781 282.152344 210.246094 C 281.160156 211.601562 280.148438 212.9375 279.128906 214.273438 C 278.351562 215.289062 277.585938 216.316406 276.828125 217.351562 C 275.839844 218.703125 274.828125 220.039062 273.808594 221.371094 C 272.878906 222.589844 271.96875 223.820312 271.0625 225.054688 C 270.96875 225.1875 270.875 225.316406 270.773438 225.449219 C 270.6875 225.570312 270.597656 225.691406 270.507812 225.816406 C 270.292969 226.101562 270.0625 226.371094 269.828125 226.640625 C 269.511719 227 269.511719 227 269.589844 227.363281 C 269.757812 227.816406 269.984375 228.128906 270.28125 228.511719 C 270.394531 228.660156 270.511719 228.808594 270.628906 228.960938 C 270.753906 229.121094 270.878906 229.277344 271.003906 229.441406 C 271.265625 229.78125 271.527344 230.121094 271.789062 230.457031 C 271.921875 230.628906 272.050781 230.800781 272.1875 230.976562 C 272.738281 231.695312 273.277344 232.429688 273.8125 233.160156 C 274.683594 234.355469 275.574219 235.539062 276.472656 236.714844 C 277.371094 237.890625 278.261719 239.074219 279.136719 240.269531 C 280.121094 241.617188 281.128906 242.953125 282.144531 244.28125 C 283.0625 245.484375 283.972656 246.691406 284.875 247.902344 C 285.679688 248.976562 286.492188 250.046875 287.308594 251.113281 C 288.308594 252.425781 289.289062 253.742188 290.261719 255.070312 C 291.035156 256.128906 291.828125 257.171875 292.621094 258.210938 C 293.625 259.523438 294.613281 260.84375 295.585938 262.179688 C 296.359375 263.234375 297.148438 264.277344 297.945312 265.316406 C 298.949219 266.628906 299.933594 267.949219 300.910156 269.285156 C 301.683594 270.339844 302.472656 271.382812 303.269531 272.421875 C 304.273438 273.734375 305.257812 275.054688 306.234375 276.390625 C 307.125 277.605469 308.035156 278.800781 308.953125 279.996094 C 309.753906 281.046875 310.539062 282.105469 311.320312 283.167969 C 312.203125 284.375 313.101562 285.5625 314.011719 286.742188 C 315.585938 288.78125 317.136719 290.832031 318.65625 292.910156 C 319.429688 293.964844 320.21875 295.007812 321.015625 296.046875 C 322.015625 297.359375 323.003906 298.683594 323.980469 300.015625 C 324.753906 301.070312 325.542969 302.113281 326.335938 303.15625 C 327.339844 304.46875 328.328125 305.789062 329.304688 307.121094 C 330.078125 308.179688 330.867188 309.222656 331.660156 310.261719 C 332.664062 311.574219 333.652344 312.894531 334.625 314.226562 C 335.402344 315.285156 336.191406 316.328125 336.984375 317.367188 C 337.882812 318.542969 338.773438 319.726562 339.648438 320.917969 C 340.632812 322.269531 341.640625 323.605469 342.65625 324.933594 C 343.574219 326.132812 344.480469 327.339844 345.382812 328.550781 C 345.972656 329.335938 346.5625 330.121094 347.164062 330.898438 C 347.289062 331.066406 347.417969 331.234375 347.550781 331.40625 C 347.796875 331.726562 348.042969 332.046875 348.292969 332.367188 C 348.40625 332.511719 348.515625 332.65625 348.632812 332.808594 C 348.730469 332.9375 348.828125 333.0625 348.929688 333.195312 C 349.304688 333.730469 349.617188 334.292969 349.9375 334.863281 C 344.609375 334.910156 339.277344 334.945312 333.945312 334.964844 C 333.316406 334.96875 332.6875 334.96875 332.058594 334.972656 C 331.871094 334.972656 331.871094 334.972656 331.679688 334.972656 C 329.648438 334.980469 327.621094 334.996094 325.59375 335.015625 C 323.511719 335.035156 321.429688 335.042969 319.347656 335.046875 C 318.179688 335.050781 317.007812 335.058594 315.839844 335.070312 C 314.738281 335.085938 313.636719 335.089844 312.539062 335.085938 C 312.132812 335.085938 311.730469 335.089844 311.328125 335.097656 C 308.117188 335.15625 308.117188 335.15625 307.300781 334.441406 C 306.890625 333.949219 306.585938 333.476562 306.285156 332.910156 C 306.089844 332.640625 305.890625 332.375 305.6875 332.113281 C 305.496094 331.851562 305.308594 331.59375 305.121094 331.332031 C 304.222656 330.101562 303.308594 328.882812 302.382812 327.671875 C 301.378906 326.359375 300.390625 325.035156 299.414062 323.703125 C 298.640625 322.648438 297.851562 321.605469 297.058594 320.5625 C 296.054688 319.25 295.066406 317.929688 294.09375 316.597656 C 293.316406 315.539062 292.527344 314.496094 291.734375 313.457031 C 290.730469 312.144531 289.742188 310.824219 288.769531 309.492188 C 287.878906 308.277344 286.964844 307.078125 286.050781 305.882812 C 285.25 304.832031 284.460938 303.777344 283.683594 302.710938 C 282.800781 301.507812 281.902344 300.316406 280.988281 299.136719 C 279.417969 297.097656 277.867188 295.046875 276.347656 292.96875 C 275.574219 291.914062 274.785156 290.871094 273.988281 289.832031 C 272.984375 288.519531 272 287.195312 271.023438 285.863281 C 270.25 284.808594 269.460938 283.765625 268.664062 282.726562 C 267.660156 281.414062 266.675781 280.089844 265.699219 278.757812 C 264.925781 277.703125 264.136719 276.660156 263.339844 275.621094 C 262.339844 274.308594 261.351562 272.984375 260.375 271.652344 C 259.601562 270.597656 258.8125 269.554688 258.019531 268.511719 C 257.015625 267.203125 256.027344 265.878906 255.050781 264.546875 C 254.164062 263.332031 253.25 262.136719 252.335938 260.941406 C 251.40625 259.71875 250.492188 258.484375 249.589844 257.238281 C 249.125 256.597656 248.667969 255.996094 248.082031 255.457031 C 248.03125 255.558594 247.984375 255.664062 247.933594 255.769531 C 247.730469 256.15625 247.507812 256.492188 247.246094 256.84375 C 247.152344 256.972656 247.054688 257.105469 246.957031 257.238281 C 246.796875 257.449219 246.796875 257.449219 246.636719 257.664062 C 246.472656 257.886719 246.472656 257.886719 246.304688 258.113281 C 245.367188 259.378906 244.414062 260.628906 243.460938 261.878906 C 242.683594 262.898438 241.917969 263.925781 241.160156 264.960938 C 240.171875 266.3125 239.164062 267.644531 238.148438 268.972656 C 237.34375 270.03125 236.542969 271.089844 235.746094 272.15625 C 234.832031 273.378906 233.914062 274.59375 232.984375 275.808594 C 231.988281 277.117188 231.003906 278.4375 230.03125 279.765625 C 229.140625 280.980469 228.226562 282.179688 227.3125 283.375 C 226.535156 284.394531 225.769531 285.421875 225.011719 286.457031 C 224.019531 287.8125 223.007812 289.148438 221.988281 290.480469 C 221.210938 291.5 220.445312 292.527344 219.6875 293.5625 C 218.695312 294.917969 217.683594 296.253906 216.664062 297.589844 C 215.886719 298.605469 215.121094 299.632812 214.363281 300.667969 C 213.371094 302.023438 212.359375 303.359375 211.339844 304.695312 C 210.5625 305.710938 209.796875 306.738281 209.039062 307.773438 C 208.050781 309.128906 207.035156 310.464844 206.015625 311.800781 C 205.238281 312.820312 204.472656 313.84375 203.71875 314.878906 C 202.726562 316.234375 201.714844 317.570312 200.691406 318.90625 C 199.914062 319.925781 199.148438 320.949219 198.394531 321.984375 C 197.402344 323.339844 196.390625 324.679688 195.371094 326.011719 C 194.488281 327.164062 193.628906 328.328125 192.769531 329.5 C 191.828125 330.789062 190.859375 332.058594 189.886719 333.324219 C 189.714844 333.546875 189.714844 333.546875 189.539062 333.777344 C 189.386719 333.976562 189.386719 333.976562 189.230469 334.179688 C 188.980469 334.5 188.980469 334.5 188.8125 334.863281 C 174.933594 334.863281 161.054688 334.863281 146.753906 334.863281 C 147.015625 334.339844 147.246094 333.9375 147.585938 333.476562 C 147.730469 333.28125 147.730469 333.28125 147.878906 333.082031 C 148.035156 332.871094 148.035156 332.871094 148.195312 332.65625 C 148.359375 332.433594 148.359375 332.433594 148.527344 332.207031 C 149.464844 330.941406 150.417969 329.691406 151.375 328.441406 C 152.152344 327.421875 152.917969 326.394531 153.675781 325.359375 C 154.667969 324.003906 155.679688 322.667969 156.699219 321.335938 C 157.476562 320.316406 158.242188 319.289062 159 318.253906 C 159.988281 316.898438 161.003906 315.5625 162.023438 314.226562 C 162.800781 313.210938 163.566406 312.183594 164.320312 311.148438 C 165.3125 309.792969 166.324219 308.457031 167.347656 307.121094 C 168.125 306.105469 168.890625 305.078125 169.644531 304.042969 C 170.636719 302.6875 171.648438 301.351562 172.667969 300.015625 C 173.445312 298.996094 174.210938 297.972656 174.96875 296.9375 C 175.960938 295.582031 176.972656 294.246094 177.992188 292.910156 C 178.769531 291.890625 179.535156 290.867188 180.292969 289.832031 C 181.285156 288.476562 182.296875 287.140625 183.316406 285.804688 C 184.09375 284.785156 184.859375 283.757812 185.617188 282.726562 C 186.609375 281.371094 187.621094 280.03125 188.640625 278.699219 C 189.417969 277.679688 190.183594 276.652344 190.941406 275.621094 C 191.929688 274.265625 192.945312 272.925781 193.964844 271.59375 C 194.742188 270.574219 195.507812 269.546875 196.265625 268.511719 C 197.253906 267.160156 198.269531 265.820312 199.289062 264.488281 C 200.066406 263.46875 200.832031 262.441406 201.585938 261.40625 C 202.578125 260.050781 203.589844 258.714844 204.609375 257.382812 C 205.386719 256.363281 206.15625 255.335938 206.910156 254.300781 C 207.902344 252.945312 208.914062 251.609375 209.933594 250.277344 C 210.710938 249.257812 211.476562 248.230469 212.234375 247.195312 C 213.226562 245.839844 214.238281 244.503906 215.257812 243.171875 C 216.042969 242.140625 216.816406 241.101562 217.582031 240.058594 C 218.484375 238.820312 219.410156 237.609375 220.355469 236.40625 C 221.195312 235.332031 222.003906 234.238281 222.808594 233.136719 C 223.753906 231.84375 224.722656 230.570312 225.695312 229.300781 C 225.808594 229.152344 225.921875 229.003906 226.039062 228.847656 C 226.191406 228.648438 226.191406 228.648438 226.347656 228.449219 C 226.816406 227.898438 226.816406 227.898438 226.929688 227.226562 C 226.757812 226.78125 226.527344 226.464844 226.234375 226.089844 C 226.121094 225.941406 226.003906 225.792969 225.886719 225.636719 C 225.761719 225.480469 225.636719 225.320312 225.511719 225.15625 C 225.25 224.816406 224.988281 224.480469 224.726562 224.140625 C 224.59375 223.96875 224.464844 223.796875 224.328125 223.621094 C 223.777344 222.902344 223.238281 222.171875 222.703125 221.4375 C 221.832031 220.242188 220.941406 219.058594 220.042969 217.882812 C 219.039062 216.570312 218.050781 215.25 217.078125 213.917969 C 216.304688 212.859375 215.515625 211.816406 214.71875 210.777344 C 213.714844 209.464844 212.730469 208.144531 211.753906 206.808594 C 210.980469 205.753906 210.191406 204.710938 209.394531 203.671875 C 208.390625 202.359375 207.40625 201.039062 206.429688 199.703125 C 205.65625 198.648438 204.867188 197.605469 204.070312 196.566406 C 203.070312 195.253906 202.082031 193.929688 201.105469 192.597656 C 200.332031 191.542969 199.542969 190.5 198.75 189.460938 C 197.746094 188.148438 196.757812 186.824219 195.78125 185.492188 C 195.007812 184.4375 194.21875 183.394531 193.425781 182.355469 C 192.421875 181.042969 191.433594 179.71875 190.460938 178.386719 C 189.683594 177.332031 188.894531 176.289062 188.101562 175.25 C 187.097656 173.9375 186.109375 172.613281 185.136719 171.28125 C 184.363281 170.226562 183.574219 169.183594 182.777344 168.144531 C 181.773438 166.832031 180.789062 165.507812 179.8125 164.175781 C 178.921875 162.960938 178.007812 161.761719 177.09375 160.566406 C 176.292969 159.519531 175.503906 158.460938 174.726562 157.394531 C 173.84375 156.191406 172.945312 155 172.03125 153.820312 C 170.460938 151.785156 168.910156 149.730469 167.390625 147.652344 C 166.617188 146.597656 165.828125 145.554688 165.03125 144.515625 C 164.027344 143.203125 163.042969 141.882812 162.066406 140.546875 C 161.292969 139.492188 160.503906 138.449219 159.707031 137.410156 C 158.707031 136.097656 157.71875 134.773438 156.742188 133.441406 C 155.96875 132.386719 155.179688 131.34375 154.386719 130.304688 C 153.382812 128.992188 152.398438 127.671875 151.421875 126.339844 C 150.5 125.082031 149.554688 123.835938 148.601562 122.597656 C 146.753906 120.183594 146.753906 120.183594 146.753906 119.734375 Z M 146.753906 119.734375 "/>
<path style=" stroke:none;fill-rule:nonzero;fill:rgb(0%,65.882353%,65.882353%);fill-opacity:1;" d="M 335.800781 84.003906 C 335.964844 84.003906 336.128906 84.003906 336.296875 84.003906 C 336.46875 84.003906 336.640625 84.003906 336.816406 84.003906 C 337.398438 84.003906 337.976562 84.007812 338.558594 84.007812 C 338.972656 84.007812 339.386719 84.007812 339.800781 84.007812 C 340.929688 84.007812 342.058594 84.007812 343.1875 84.007812 C 344.246094 84.011719 345.304688 84.011719 346.367188 84.011719 C 348.464844 84.011719 350.5625 84.011719 352.660156 84.011719 C 354.699219 84.015625 356.738281 84.015625 358.777344 84.015625 C 358.964844 84.015625 358.964844 84.015625 359.15625 84.015625 C 359.785156 84.019531 360.417969 84.019531 361.046875 84.019531 C 366.277344 84.019531 371.503906 84.023438 376.734375 84.027344 C 376.492188 84.527344 376.230469 84.96875 375.902344 85.414062 C 375.804688 85.546875 375.707031 85.675781 375.609375 85.808594 C 375.503906 85.949219 375.398438 86.089844 375.292969 86.238281 C 375.183594 86.382812 375.074219 86.53125 374.960938 86.683594 C 374.023438 87.949219 373.070312 89.199219 372.113281 90.449219 C 371.335938 91.46875 370.570312 92.496094 369.8125 93.53125 C 368.824219 94.886719 367.808594 96.222656 366.789062 97.558594 C 365.910156 98.710938 365.046875 99.878906 364.1875 101.050781 C 363.28125 102.289062 362.351562 103.511719 361.417969 104.730469 C 361.25 104.945312 361.25 104.945312 361.082031 105.167969 C 360.972656 105.300781 360.867188 105.4375 360.753906 105.574219 C 360.394531 106.042969 360.394531 106.042969 360.175781 106.5625 C 359.84375 107.199219 359.558594 107.566406 358.988281 108.007812 C 357.703125 108.390625 356.277344 108.253906 354.949219 108.230469 C 354.535156 108.230469 354.117188 108.230469 353.703125 108.230469 C 352.574219 108.234375 351.445312 108.222656 350.316406 108.207031 C 349.257812 108.195312 348.195312 108.195312 347.136719 108.191406 C 345.035156 108.1875 342.9375 108.175781 340.835938 108.15625 C 338.796875 108.140625 336.761719 108.125 334.722656 108.117188 C 334.59375 108.117188 334.46875 108.117188 334.339844 108.113281 C 333.710938 108.113281 333.078125 108.109375 332.445312 108.109375 C 327.214844 108.085938 321.984375 108.054688 316.753906 108.007812 C 317.527344 106.644531 317.527344 106.644531 317.988281 106.0625 C 318.085938 105.941406 318.183594 105.816406 318.285156 105.691406 C 318.386719 105.5625 318.488281 105.433594 318.597656 105.300781 C 319.472656 104.183594 320.332031 103.058594 321.167969 101.914062 C 322.050781 100.707031 322.945312 99.515625 323.851562 98.328125 C 324.753906 97.152344 325.640625 95.96875 326.515625 94.773438 C 327.515625 93.410156 328.535156 92.058594 329.5625 90.714844 C 330.289062 89.761719 331.011719 88.804688 331.726562 87.847656 C 332.390625 86.957031 333.058594 86.074219 333.734375 85.191406 C 333.808594 85.09375 333.886719 84.996094 333.960938 84.898438 C 334.601562 84.066406 334.726562 84.007812 335.800781 84.003906 Z M 335.800781 84.003906 "/>
<path style=" stroke:none;fill-rule:nonzero;fill:rgb(0%,65.882353%,65.882353%);fill-opacity:1;" d="M 141.804688 346.265625 C 142.222656 346.265625 142.636719 346.265625 143.050781 346.265625 C 144.171875 346.265625 145.292969 346.28125 146.414062 346.300781 C 147.464844 346.316406 148.519531 346.320312 149.574219 346.324219 C 151.660156 346.328125 153.746094 346.347656 155.832031 346.375 C 157.859375 346.402344 159.882812 346.421875 161.910156 346.433594 C 162.035156 346.433594 162.160156 346.433594 162.289062 346.433594 C 162.914062 346.4375 163.542969 346.441406 164.171875 346.445312 C 169.367188 346.476562 174.5625 346.527344 179.761719 346.589844 C 178.988281 347.953125 178.988281 347.953125 178.527344 348.535156 C 178.378906 348.71875 178.378906 348.71875 178.230469 348.90625 C 178.128906 349.035156 178.027344 349.164062 177.917969 349.296875 C 177.042969 350.414062 176.183594 351.539062 175.347656 352.683594 C 174.464844 353.890625 173.570312 355.085938 172.664062 356.269531 C 171.761719 357.445312 170.875 358.628906 170 359.824219 C 169.125 361.019531 168.238281 362.199219 167.339844 363.378906 C 166.214844 364.847656 165.109375 366.328125 164.015625 367.820312 C 163.925781 367.9375 163.832031 368.058594 163.738281 368.179688 C 163.417969 368.613281 163.417969 368.613281 163.207031 369.117188 C 162.875 369.753906 162.585938 370.125 162.015625 370.570312 C 160.734375 370.953125 159.316406 370.816406 157.992188 370.792969 C 157.578125 370.792969 157.164062 370.792969 156.75 370.792969 C 155.625 370.796875 154.503906 370.785156 153.378906 370.769531 C 152.324219 370.757812 151.265625 370.757812 150.210938 370.753906 C 148.121094 370.75 146.03125 370.738281 143.941406 370.71875 C 141.910156 370.703125 139.878906 370.6875 137.847656 370.679688 C 137.660156 370.679688 137.660156 370.679688 137.46875 370.675781 C 136.839844 370.675781 136.214844 370.671875 135.585938 370.671875 C 130.375 370.648438 125.167969 370.617188 119.957031 370.570312 C 120.128906 370.316406 120.300781 370.058594 120.46875 369.800781 C 120.5625 369.660156 120.660156 369.515625 120.757812 369.371094 C 121.050781 368.929688 121.363281 368.507812 121.6875 368.089844 C 121.800781 367.9375 121.917969 367.789062 122.035156 367.632812 C 122.15625 367.476562 122.277344 367.324219 122.398438 367.164062 C 123.269531 366.027344 124.128906 364.882812 124.953125 363.710938 C 125.734375 362.605469 126.558594 361.539062 127.382812 360.464844 C 128.292969 359.273438 129.1875 358.070312 130.070312 356.859375 C 130.71875 355.980469 131.367188 355.101562 132.027344 354.226562 C 132.894531 353.070312 133.757812 351.90625 134.613281 350.738281 C 134.804688 350.472656 135 350.214844 135.199219 349.957031 C 135.488281 349.550781 135.726562 349.167969 135.960938 348.730469 C 137.441406 346.203125 139.050781 346.191406 141.804688 346.265625 Z M 141.804688 346.265625 "/>
</g>
</svg>
